<svg width="178" height="39" viewBox="0 0 178 39" fill="none" xmlns="http://www.w3.org/2000/svg">
<path d="M19 27.5L11 19.5L3 11.5L11 3.5L19 11.5L27 3.5L35 11.5L27 19.5L35 27.5L27 35.5L19 27.5ZM19 27.5L11 35.5L3 27.5" stroke="white" stroke-width="4"/>
<path d="M58.3907 27.684C57.3021 27.684 56.3667 27.454 55.5847 26.994C54.8027 26.534 54.2047 25.8363 53.7907 24.901C53.3767 23.9503 53.1697 22.7543 53.1697 21.313C53.1697 19.8563 53.3844 18.6603 53.8137 17.725C54.2584 16.7897 54.8717 16.092 55.6537 15.632C56.4357 15.172 57.3481 14.942 58.3907 14.942C59.5561 14.942 60.5987 15.2027 61.5187 15.724C62.4541 16.2453 63.1901 16.9813 63.7267 17.932C64.2787 18.8827 64.5547 20.0097 64.5547 21.313C64.5547 22.601 64.2787 23.7203 63.7267 24.671C63.1901 25.6217 62.4541 26.3653 61.5187 26.902C60.5987 27.4233 59.5561 27.684 58.3907 27.684ZM51.0767 27.5V10.434H54.6647V17.633L54.4347 21.29L54.5037 24.97V27.5H51.0767ZM57.7697 24.74C58.3677 24.74 58.8967 24.602 59.3567 24.326C59.8321 24.05 60.2077 23.659 60.4837 23.153C60.7751 22.6317 60.9207 22.0183 60.9207 21.313C60.9207 20.5923 60.7751 19.979 60.4837 19.473C60.2077 18.967 59.8321 18.576 59.3567 18.3C58.8967 18.024 58.3677 17.886 57.7697 17.886C57.1717 17.886 56.6351 18.024 56.1597 18.3C55.6844 18.576 55.3087 18.967 55.0327 19.473C54.7567 19.979 54.6187 20.5923 54.6187 21.313C54.6187 22.0183 54.7567 22.6317 55.0327 23.153C55.3087 23.659 55.6844 24.05 56.1597 24.326C56.6351 24.602 57.1717 24.74 57.7697 24.74ZM70.8896 27.684C69.8316 27.684 68.812 27.5613 67.8306 27.316C66.8646 27.0553 66.098 26.7333 65.5306 26.35L66.7266 23.774C67.294 24.1267 67.961 24.418 68.7276 24.648C69.5096 24.8627 70.2763 24.97 71.0276 24.97C71.8556 24.97 72.4383 24.8703 72.7756 24.671C73.1283 24.4717 73.3046 24.1957 73.3046 23.843C73.3046 23.5517 73.1666 23.337 72.8906 23.199C72.63 23.0457 72.2773 22.9307 71.8326 22.854C71.388 22.7773 70.8973 22.7007 70.3606 22.624C69.8393 22.5473 69.3103 22.4477 68.7736 22.325C68.237 22.187 67.7463 21.9877 67.3016 21.727C66.857 21.4663 66.4966 21.1137 66.2206 20.669C65.96 20.2243 65.8296 19.6493 65.8296 18.944C65.8296 18.162 66.052 17.472 66.4966 16.874C66.9566 16.276 67.616 15.8083 68.4746 15.471C69.3333 15.1183 70.3606 14.942 71.5566 14.942C72.4 14.942 73.2586 15.034 74.1326 15.218C75.0066 15.402 75.735 15.6703 76.3176 16.023L75.1216 18.576C74.5236 18.2233 73.918 17.9857 73.3046 17.863C72.7066 17.725 72.124 17.656 71.5566 17.656C70.7593 17.656 70.1766 17.7633 69.8086 17.978C69.4406 18.1927 69.2566 18.4687 69.2566 18.806C69.2566 19.1127 69.387 19.3427 69.6476 19.496C69.9236 19.6493 70.284 19.772 70.7286 19.864C71.1733 19.956 71.6563 20.0403 72.1776 20.117C72.7143 20.1783 73.251 20.278 73.7876 20.416C74.3243 20.554 74.8073 20.7533 75.2366 21.014C75.6813 21.2593 76.0416 21.6043 76.3176 22.049C76.5936 22.4783 76.7316 23.0457 76.7316 23.751C76.7316 24.5177 76.5016 25.2 76.0416 25.798C75.5816 26.3807 74.9146 26.8407 74.0406 27.178C73.182 27.5153 72.1316 27.684 70.8896 27.684ZM84.6034 27.684C83.2847 27.684 82.1117 27.408 81.0844 26.856C80.0724 26.304 79.2674 25.5527 78.6694 24.602C78.0867 23.636 77.7954 22.5397 77.7954 21.313C77.7954 20.071 78.0867 18.9747 78.6694 18.024C79.2674 17.058 80.0724 16.3067 81.0844 15.77C82.1117 15.218 83.2847 14.942 84.6034 14.942C85.9067 14.942 87.072 15.218 88.0994 15.77C89.1267 16.3067 89.9317 17.0503 90.5144 18.001C91.097 18.9517 91.3884 20.0557 91.3884 21.313C91.3884 22.5397 91.097 23.636 90.5144 24.602C89.9317 25.5527 89.1267 26.304 88.0994 26.856C87.072 27.408 85.9067 27.684 84.6034 27.684ZM84.6034 24.74C85.2014 24.74 85.738 24.602 86.2134 24.326C86.6887 24.05 87.0644 23.659 87.3404 23.153C87.6164 22.6317 87.7544 22.0183 87.7544 21.313C87.7544 20.5923 87.6164 19.979 87.3404 19.473C87.0644 18.967 86.6887 18.576 86.2134 18.3C85.738 18.024 85.2014 17.886 84.6034 17.886C84.0054 17.886 83.4687 18.024 82.9934 18.3C82.518 18.576 82.1347 18.967 81.8434 19.473C81.5674 19.979 81.4294 20.5923 81.4294 21.313C81.4294 22.0183 81.5674 22.6317 81.8434 23.153C82.1347 23.659 82.518 24.05 82.9934 24.326C83.4687 24.602 84.0054 24.74 84.6034 24.74ZM93.5567 27.5V10.434H97.1447V27.5H93.5567ZM106.064 32.146C104.898 32.146 103.771 32.0003 102.683 31.709C101.609 31.433 100.712 31.0113 99.9916 30.444L101.418 27.868C101.939 28.2973 102.598 28.6347 103.396 28.88C104.208 29.1407 105.006 29.271 105.788 29.271C107.06 29.271 107.98 28.9873 108.548 28.42C109.13 27.8527 109.422 27.0093 109.422 25.89V24.027L109.652 20.922L109.606 17.794V15.126H113.01V25.43C113.01 27.73 112.412 29.4243 111.216 30.513C110.02 31.6017 108.302 32.146 106.064 32.146ZM105.512 26.902C104.362 26.902 103.319 26.6567 102.384 26.166C101.464 25.66 100.72 24.9623 100.153 24.073C99.6006 23.1683 99.3246 22.118 99.3246 20.922C99.3246 19.7107 99.6006 18.6603 100.153 17.771C100.72 16.8663 101.464 16.1687 102.384 15.678C103.319 15.1873 104.362 14.942 105.512 14.942C106.554 14.942 107.474 15.1567 108.272 15.586C109.069 16 109.69 16.6517 110.135 17.541C110.579 18.415 110.802 19.542 110.802 20.922C110.802 22.2867 110.579 23.4137 110.135 24.303C109.69 25.177 109.069 25.8287 108.272 26.258C107.474 26.6873 106.554 26.902 105.512 26.902ZM106.225 23.958C106.853 23.958 107.413 23.8353 107.904 23.59C108.394 23.3293 108.778 22.969 109.054 22.509C109.33 22.049 109.468 21.52 109.468 20.922C109.468 20.3087 109.33 19.7797 109.054 19.335C108.778 18.875 108.394 18.5223 107.904 18.277C107.413 18.0163 106.853 17.886 106.225 17.886C105.596 17.886 105.036 18.0163 104.546 18.277C104.055 18.5223 103.664 18.875 103.373 19.335C103.097 19.7797 102.959 20.3087 102.959 20.922C102.959 21.52 103.097 22.049 103.373 22.509C103.664 22.969 104.055 23.3293 104.546 23.59C105.036 23.8353 105.596 23.958 106.225 23.958ZM123.709 27.5V25.085L123.479 24.556V20.232C123.479 19.4653 123.241 18.8673 122.766 18.438C122.306 18.0087 121.593 17.794 120.627 17.794C119.968 17.794 119.316 17.9013 118.672 18.116C118.043 18.3153 117.507 18.5913 117.062 18.944L115.774 16.437C116.449 15.9617 117.261 15.5937 118.212 15.333C119.163 15.0723 120.129 14.942 121.11 14.942C122.996 14.942 124.46 15.3867 125.503 16.276C126.546 17.1653 127.067 18.553 127.067 20.439V27.5H123.709ZM119.937 27.684C118.971 27.684 118.143 27.523 117.453 27.201C116.763 26.8637 116.234 26.4113 115.866 25.844C115.498 25.2767 115.314 24.6403 115.314 23.935C115.314 23.199 115.49 22.555 115.843 22.003C116.211 21.451 116.786 21.0217 117.568 20.715C118.35 20.393 119.37 20.232 120.627 20.232H123.916V22.325H121.018C120.175 22.325 119.592 22.463 119.27 22.739C118.963 23.015 118.81 23.36 118.81 23.774C118.81 24.234 118.986 24.602 119.339 24.878C119.707 25.1387 120.205 25.269 120.834 25.269C121.432 25.269 121.969 25.131 122.444 24.855C122.919 24.5637 123.264 24.142 123.479 23.59L124.031 25.246C123.77 26.0433 123.295 26.649 122.605 27.063C121.915 27.477 121.026 27.684 119.937 27.684Z" fill="white"/>
<path d="M131.441 27.684C130.828 27.684 130.299 27.477 129.854 27.063C129.425 26.6337 129.21 26.0893 129.21 25.43C129.21 24.7707 129.425 24.2417 129.854 23.843C130.299 23.429 130.828 23.222 131.441 23.222C132.07 23.222 132.599 23.429 133.028 23.843C133.458 24.2417 133.672 24.7707 133.672 25.43C133.672 26.0893 133.458 26.6337 133.028 27.063C132.599 27.477 132.07 27.684 131.441 27.684ZM141.052 27.684C139.887 27.684 138.837 27.4233 137.901 26.902C136.966 26.3653 136.222 25.6217 135.67 24.671C135.134 23.7203 134.865 22.601 134.865 21.313C134.865 20.0097 135.134 18.8827 135.67 17.932C136.222 16.9813 136.966 16.2453 137.901 15.724C138.837 15.2027 139.887 14.942 141.052 14.942C142.095 14.942 143.007 15.172 143.789 15.632C144.571 16.092 145.177 16.7897 145.606 17.725C146.036 18.6603 146.25 19.8563 146.25 21.313C146.25 22.7543 146.043 23.9503 145.629 24.901C145.215 25.8363 144.617 26.534 143.835 26.994C143.069 27.454 142.141 27.684 141.052 27.684ZM141.673 24.74C142.256 24.74 142.785 24.602 143.26 24.326C143.736 24.05 144.111 23.659 144.387 23.153C144.679 22.6317 144.824 22.0183 144.824 21.313C144.824 20.5923 144.679 19.979 144.387 19.473C144.111 18.967 143.736 18.576 143.26 18.3C142.785 18.024 142.256 17.886 141.673 17.886C141.075 17.886 140.539 18.024 140.063 18.3C139.588 18.576 139.205 18.967 138.913 19.473C138.637 19.979 138.499 20.5923 138.499 21.313C138.499 22.0183 138.637 22.6317 138.913 23.153C139.205 23.659 139.588 24.05 140.063 24.326C140.539 24.602 141.075 24.74 141.673 24.74ZM144.916 27.5V24.97L144.985 21.29L144.755 17.633V10.434H148.343V27.5H144.916ZM157.575 27.684C156.164 27.684 154.922 27.408 153.849 26.856C152.791 26.304 151.971 25.5527 151.388 24.602C150.805 23.636 150.514 22.5397 150.514 21.313C150.514 20.071 150.798 18.9747 151.365 18.024C151.948 17.058 152.737 16.3067 153.734 15.77C154.731 15.218 155.858 14.942 157.115 14.942C158.326 14.942 159.415 15.2027 160.381 15.724C161.362 16.23 162.137 16.966 162.704 17.932C163.271 18.8827 163.555 20.025 163.555 21.359C163.555 21.497 163.547 21.658 163.532 21.842C163.517 22.0107 163.501 22.1717 163.486 22.325H153.435V20.232H161.6L160.22 20.853C160.22 20.209 160.09 19.6493 159.829 19.174C159.568 18.6987 159.208 18.3307 158.748 18.07C158.288 17.794 157.751 17.656 157.138 17.656C156.525 17.656 155.98 17.794 155.505 18.07C155.045 18.3307 154.685 18.7063 154.424 19.197C154.163 19.6723 154.033 20.2397 154.033 20.899V21.451C154.033 22.1257 154.179 22.7237 154.47 23.245C154.777 23.751 155.198 24.142 155.735 24.418C156.287 24.6787 156.931 24.809 157.667 24.809C158.326 24.809 158.901 24.7093 159.392 24.51C159.898 24.3107 160.358 24.0117 160.772 23.613L162.681 25.683C162.114 26.327 161.401 26.8253 160.542 27.178C159.683 27.5153 158.694 27.684 157.575 27.684ZM168.847 27.5L163.649 15.126H167.352L171.676 25.775H169.836L174.321 15.126H177.771L172.55 27.5H168.847Z" fill="#926FF4"/>
</svg>
