<svg width="178" height="38" viewBox="0 0 178 38" fill="none" xmlns="http://www.w3.org/2000/svg">
<path d="M19 27L11 19L3 11L11 3L19 11L27 3L35 11L27 19L35 27L27 35L19 27ZM19 27L11 35L3 27" stroke="white" stroke-width="4"/>
<path d="M58.3907 27.184C57.3021 27.184 56.3667 26.954 55.5847 26.494C54.8027 26.034 54.2047 25.3363 53.7907 24.401C53.3767 23.4503 53.1697 22.2543 53.1697 20.813C53.1697 19.3563 53.3844 18.1603 53.8137 17.225C54.2584 16.2897 54.8717 15.592 55.6537 15.132C56.4357 14.672 57.3481 14.442 58.3907 14.442C59.5561 14.442 60.5987 14.7027 61.5187 15.224C62.4541 15.7453 63.1901 16.4813 63.7267 17.432C64.2787 18.3827 64.5547 19.5097 64.5547 20.813C64.5547 22.101 64.2787 23.2203 63.7267 24.171C63.1901 25.1217 62.4541 25.8653 61.5187 26.402C60.5987 26.9233 59.5561 27.184 58.3907 27.184ZM51.0767 27V9.934H54.6647V17.133L54.4347 20.79L54.5037 24.47V27H51.0767ZM57.7697 24.24C58.3677 24.24 58.8967 24.102 59.3567 23.826C59.8321 23.55 60.2077 23.159 60.4837 22.653C60.7751 22.1317 60.9207 21.5183 60.9207 20.813C60.9207 20.0923 60.7751 19.479 60.4837 18.973C60.2077 18.467 59.8321 18.076 59.3567 17.8C58.8967 17.524 58.3677 17.386 57.7697 17.386C57.1717 17.386 56.6351 17.524 56.1597 17.8C55.6844 18.076 55.3087 18.467 55.0327 18.973C54.7567 19.479 54.6187 20.0923 54.6187 20.813C54.6187 21.5183 54.7567 22.1317 55.0327 22.653C55.3087 23.159 55.6844 23.55 56.1597 23.826C56.6351 24.102 57.1717 24.24 57.7697 24.24ZM70.8896 27.184C69.8316 27.184 68.812 27.0613 67.8306 26.816C66.8646 26.5553 66.098 26.2333 65.5306 25.85L66.7266 23.274C67.294 23.6267 67.961 23.918 68.7276 24.148C69.5096 24.3627 70.2763 24.47 71.0276 24.47C71.8556 24.47 72.4383 24.3703 72.7756 24.171C73.1283 23.9717 73.3046 23.6957 73.3046 23.343C73.3046 23.0517 73.1666 22.837 72.8906 22.699C72.63 22.5457 72.2773 22.4307 71.8326 22.354C71.388 22.2773 70.8973 22.2007 70.3606 22.124C69.8393 22.0473 69.3103 21.9477 68.7736 21.825C68.237 21.687 67.7463 21.4877 67.3016 21.227C66.857 20.9663 66.4966 20.6137 66.2206 20.169C65.96 19.7243 65.8296 19.1493 65.8296 18.444C65.8296 17.662 66.052 16.972 66.4966 16.374C66.9566 15.776 67.616 15.3083 68.4746 14.971C69.3333 14.6183 70.3606 14.442 71.5566 14.442C72.4 14.442 73.2586 14.534 74.1326 14.718C75.0066 14.902 75.735 15.1703 76.3176 15.523L75.1216 18.076C74.5236 17.7233 73.918 17.4857 73.3046 17.363C72.7066 17.225 72.124 17.156 71.5566 17.156C70.7593 17.156 70.1766 17.2633 69.8086 17.478C69.4406 17.6927 69.2566 17.9687 69.2566 18.306C69.2566 18.6127 69.387 18.8427 69.6476 18.996C69.9236 19.1493 70.284 19.272 70.7286 19.364C71.1733 19.456 71.6563 19.5403 72.1776 19.617C72.7143 19.6783 73.251 19.778 73.7876 19.916C74.3243 20.054 74.8073 20.2533 75.2366 20.514C75.6813 20.7593 76.0416 21.1043 76.3176 21.549C76.5936 21.9783 76.7316 22.5457 76.7316 23.251C76.7316 24.0177 76.5016 24.7 76.0416 25.298C75.5816 25.8807 74.9146 26.3407 74.0406 26.678C73.182 27.0153 72.1316 27.184 70.8896 27.184ZM84.6034 27.184C83.2847 27.184 82.1117 26.908 81.0844 26.356C80.0724 25.804 79.2674 25.0527 78.6694 24.102C78.0867 23.136 77.7954 22.0397 77.7954 20.813C77.7954 19.571 78.0867 18.4747 78.6694 17.524C79.2674 16.558 80.0724 15.8067 81.0844 15.27C82.1117 14.718 83.2847 14.442 84.6034 14.442C85.9067 14.442 87.072 14.718 88.0994 15.27C89.1267 15.8067 89.9317 16.5503 90.5144 17.501C91.097 18.4517 91.3884 19.5557 91.3884 20.813C91.3884 22.0397 91.097 23.136 90.5144 24.102C89.9317 25.0527 89.1267 25.804 88.0994 26.356C87.072 26.908 85.9067 27.184 84.6034 27.184ZM84.6034 24.24C85.2014 24.24 85.738 24.102 86.2134 23.826C86.6887 23.55 87.0644 23.159 87.3404 22.653C87.6164 22.1317 87.7544 21.5183 87.7544 20.813C87.7544 20.0923 87.6164 19.479 87.3404 18.973C87.0644 18.467 86.6887 18.076 86.2134 17.8C85.738 17.524 85.2014 17.386 84.6034 17.386C84.0054 17.386 83.4687 17.524 82.9934 17.8C82.518 18.076 82.1347 18.467 81.8434 18.973C81.5674 19.479 81.4294 20.0923 81.4294 20.813C81.4294 21.5183 81.5674 22.1317 81.8434 22.653C82.1347 23.159 82.518 23.55 82.9934 23.826C83.4687 24.102 84.0054 24.24 84.6034 24.24ZM93.5567 27V9.934H97.1447V27H93.5567ZM106.064 31.646C104.898 31.646 103.771 31.5003 102.683 31.209C101.609 30.933 100.712 30.5113 99.9916 29.944L101.418 27.368C101.939 27.7973 102.598 28.1347 103.396 28.38C104.208 28.6407 105.006 28.771 105.788 28.771C107.06 28.771 107.98 28.4873 108.548 27.92C109.13 27.3527 109.422 26.5093 109.422 25.39V23.527L109.652 20.422L109.606 17.294V14.626H113.01V24.93C113.01 27.23 112.412 28.9243 111.216 30.013C110.02 31.1017 108.302 31.646 106.064 31.646ZM105.512 26.402C104.362 26.402 103.319 26.1567 102.384 25.666C101.464 25.16 100.72 24.4623 100.153 23.573C99.6006 22.6683 99.3246 21.618 99.3246 20.422C99.3246 19.2107 99.6006 18.1603 100.153 17.271C100.72 16.3663 101.464 15.6687 102.384 15.178C103.319 14.6873 104.362 14.442 105.512 14.442C106.554 14.442 107.474 14.6567 108.272 15.086C109.069 15.5 109.69 16.1517 110.135 17.041C110.579 17.915 110.802 19.042 110.802 20.422C110.802 21.7867 110.579 22.9137 110.135 23.803C109.69 24.677 109.069 25.3287 108.272 25.758C107.474 26.1873 106.554 26.402 105.512 26.402ZM106.225 23.458C106.853 23.458 107.413 23.3353 107.904 23.09C108.394 22.8293 108.778 22.469 109.054 22.009C109.33 21.549 109.468 21.02 109.468 20.422C109.468 19.8087 109.33 19.2797 109.054 18.835C108.778 18.375 108.394 18.0223 107.904 17.777C107.413 17.5163 106.853 17.386 106.225 17.386C105.596 17.386 105.036 17.5163 104.546 17.777C104.055 18.0223 103.664 18.375 103.373 18.835C103.097 19.2797 102.959 19.8087 102.959 20.422C102.959 21.02 103.097 21.549 103.373 22.009C103.664 22.469 104.055 22.8293 104.546 23.09C105.036 23.3353 105.596 23.458 106.225 23.458ZM123.709 27V24.585L123.479 24.056V19.732C123.479 18.9653 123.241 18.3673 122.766 17.938C122.306 17.5087 121.593 17.294 120.627 17.294C119.968 17.294 119.316 17.4013 118.672 17.616C118.043 17.8153 117.507 18.0913 117.062 18.444L115.774 15.937C116.449 15.4617 117.261 15.0937 118.212 14.833C119.163 14.5723 120.129 14.442 121.11 14.442C122.996 14.442 124.46 14.8867 125.503 15.776C126.546 16.6653 127.067 18.053 127.067 19.939V27H123.709ZM119.937 27.184C118.971 27.184 118.143 27.023 117.453 26.701C116.763 26.3637 116.234 25.9113 115.866 25.344C115.498 24.7767 115.314 24.1403 115.314 23.435C115.314 22.699 115.49 22.055 115.843 21.503C116.211 20.951 116.786 20.5217 117.568 20.215C118.35 19.893 119.37 19.732 120.627 19.732H123.916V21.825H121.018C120.175 21.825 119.592 21.963 119.27 22.239C118.963 22.515 118.81 22.86 118.81 23.274C118.81 23.734 118.986 24.102 119.339 24.378C119.707 24.6387 120.205 24.769 120.834 24.769C121.432 24.769 121.969 24.631 122.444 24.355C122.919 24.0637 123.264 23.642 123.479 23.09L124.031 24.746C123.77 25.5433 123.295 26.149 122.605 26.563C121.915 26.977 121.026 27.184 119.937 27.184Z" fill="white"/>
<path d="M131.441 27.184C130.828 27.184 130.299 26.977 129.854 26.563C129.425 26.1337 129.21 25.5893 129.21 24.93C129.21 24.2707 129.425 23.7417 129.854 23.343C130.299 22.929 130.828 22.722 131.441 22.722C132.07 22.722 132.599 22.929 133.028 23.343C133.458 23.7417 133.672 24.2707 133.672 24.93C133.672 25.5893 133.458 26.1337 133.028 26.563C132.599 26.977 132.07 27.184 131.441 27.184ZM141.052 27.184C139.887 27.184 138.837 26.9233 137.901 26.402C136.966 25.8653 136.222 25.1217 135.67 24.171C135.134 23.2203 134.865 22.101 134.865 20.813C134.865 19.5097 135.134 18.3827 135.67 17.432C136.222 16.4813 136.966 15.7453 137.901 15.224C138.837 14.7027 139.887 14.442 141.052 14.442C142.095 14.442 143.007 14.672 143.789 15.132C144.571 15.592 145.177 16.2897 145.606 17.225C146.036 18.1603 146.25 19.3563 146.25 20.813C146.25 22.2543 146.043 23.4503 145.629 24.401C145.215 25.3363 144.617 26.034 143.835 26.494C143.069 26.954 142.141 27.184 141.052 27.184ZM141.673 24.24C142.256 24.24 142.785 24.102 143.26 23.826C143.736 23.55 144.111 23.159 144.387 22.653C144.679 22.1317 144.824 21.5183 144.824 20.813C144.824 20.0923 144.679 19.479 144.387 18.973C144.111 18.467 143.736 18.076 143.26 17.8C142.785 17.524 142.256 17.386 141.673 17.386C141.075 17.386 140.539 17.524 140.063 17.8C139.588 18.076 139.205 18.467 138.913 18.973C138.637 19.479 138.499 20.0923 138.499 20.813C138.499 21.5183 138.637 22.1317 138.913 22.653C139.205 23.159 139.588 23.55 140.063 23.826C140.539 24.102 141.075 24.24 141.673 24.24ZM144.916 27V24.47L144.985 20.79L144.755 17.133V9.934H148.343V27H144.916ZM157.575 27.184C156.164 27.184 154.922 26.908 153.849 26.356C152.791 25.804 151.971 25.0527 151.388 24.102C150.805 23.136 150.514 22.0397 150.514 20.813C150.514 19.571 150.798 18.4747 151.365 17.524C151.948 16.558 152.737 15.8067 153.734 15.27C154.731 14.718 155.858 14.442 157.115 14.442C158.326 14.442 159.415 14.7027 160.381 15.224C161.362 15.73 162.137 16.466 162.704 17.432C163.271 18.3827 163.555 19.525 163.555 20.859C163.555 20.997 163.547 21.158 163.532 21.342C163.517 21.5107 163.501 21.6717 163.486 21.825H153.435V19.732H161.6L160.22 20.353C160.22 19.709 160.09 19.1493 159.829 18.674C159.568 18.1987 159.208 17.8307 158.748 17.57C158.288 17.294 157.751 17.156 157.138 17.156C156.525 17.156 155.98 17.294 155.505 17.57C155.045 17.8307 154.685 18.2063 154.424 18.697C154.163 19.1723 154.033 19.7397 154.033 20.399V20.951C154.033 21.6257 154.179 22.2237 154.47 22.745C154.777 23.251 155.198 23.642 155.735 23.918C156.287 24.1787 156.931 24.309 157.667 24.309C158.326 24.309 158.901 24.2093 159.392 24.01C159.898 23.8107 160.358 23.5117 160.772 23.113L162.681 25.183C162.114 25.827 161.401 26.3253 160.542 26.678C159.683 27.0153 158.694 27.184 157.575 27.184ZM168.847 27L163.649 14.626H167.352L171.676 25.275H169.836L174.321 14.626H177.771L172.55 27H168.847Z" fill="#FF7700"/>
</svg>
